<svg width="50" height="50" viewBox="0 0 50 50" fill="none" xmlns="http://www.w3.org/2000/svg">
<g clip-path="url(#clip0_12_10)">
<path d="M25.0002 0C11.1947 0 0 11.1928 0 25.0002C0 36.0459 7.16328 45.4172 17.0967 48.7229C18.3461 48.9543 18.8049 48.1805 18.8049 47.5201C18.8049 46.924 18.7814 44.9547 18.7709 42.8658C11.8158 44.3779 10.3482 39.916 10.3482 39.916C9.21094 37.0264 7.57227 36.2578 7.57227 36.2578C5.3041 34.7063 7.74336 34.7383 7.74336 34.7383C10.2537 34.9145 11.5756 37.3145 11.5756 37.3145C13.8055 41.1363 17.4242 40.0314 18.8508 39.3926C19.0752 37.777 19.723 36.6738 20.4381 36.0496C14.8852 35.4176 9.04785 33.2738 9.04785 23.6945C9.04785 20.965 10.0244 18.7348 11.6236 16.984C11.3641 16.3543 10.5084 13.8117 11.8658 10.368C11.8658 10.368 13.9652 9.69609 18.7428 12.9307C20.7369 12.3768 22.8756 12.099 25.0002 12.0895C27.1248 12.099 29.2652 12.3766 31.2631 12.9307C36.0348 9.69629 38.1312 10.3682 38.1312 10.3682C39.492 13.8115 38.6359 16.3545 38.3764 16.984C39.9793 18.7348 40.9492 20.965 40.9492 23.6945C40.9492 33.2967 35.1008 35.4109 29.5338 36.0299C30.4305 36.8057 31.2295 38.3272 31.2295 40.6596C31.2295 44.0045 31.2006 46.6967 31.2006 47.5201C31.2006 48.1855 31.6506 48.965 32.9178 48.7193C42.8457 45.4102 50 36.0424 50 25.0004C50 11.1928 38.8068 0 25.0002 0ZM9.36348 35.6133C9.3084 35.7375 9.11289 35.7748 8.93496 35.6895C8.75352 35.608 8.65176 35.4387 8.71035 35.3141C8.76426 35.1861 8.96016 35.1504 9.14102 35.2361C9.32266 35.3178 9.42617 35.4887 9.36348 35.6133ZM10.5932 36.7105C10.474 36.8211 10.2408 36.7697 10.0826 36.5951C9.91914 36.4209 9.88848 36.1877 10.0094 36.0756C10.1324 35.965 10.3584 36.0168 10.5223 36.191C10.6859 36.3674 10.7176 36.5988 10.5932 36.7105ZM11.4369 38.1145C11.2836 38.2209 11.0332 38.1211 10.8783 37.8988C10.7252 37.6766 10.7252 37.41 10.8816 37.3031C11.0369 37.1963 11.2836 37.2924 11.4404 37.5131C11.5932 37.7391 11.5932 38.0057 11.4367 38.1147L11.4369 38.1145ZM12.8635 39.7404C12.7266 39.8916 12.4346 39.851 12.2209 39.6447C12.0023 39.4432 11.9416 39.1572 12.0791 39.0061C12.2178 38.8545 12.5113 38.8971 12.7266 39.1018C12.9434 39.3029 13.0098 39.591 12.8635 39.7404ZM14.7076 40.2893C14.6471 40.4852 14.3658 40.5742 14.0828 40.491C13.8 40.4053 13.615 40.176 13.6721 39.9781C13.7309 39.7809 14.0133 39.6883 14.2984 39.7773C14.5809 39.8625 14.7664 40.0902 14.7076 40.2895V40.2893ZM16.8061 40.5223C16.8131 40.7283 16.573 40.8992 16.2758 40.9031C15.977 40.9098 15.735 40.743 15.7316 40.5398C15.7316 40.3318 15.9664 40.1625 16.2654 40.1574C16.5627 40.1516 16.8061 40.3172 16.8061 40.5223V40.5223ZM18.8676 40.4432C18.9031 40.6443 18.6967 40.851 18.4014 40.9061C18.1113 40.959 17.8426 40.8348 17.8057 40.6354C17.7697 40.4291 17.9801 40.2225 18.2697 40.1691C18.5654 40.1178 18.8299 40.2387 18.8676 40.4432Z" fill="#545454"/>
</g>
<defs>
<clipPath id="clip0_12_10">
<rect width="50" height="50" fill="white"/>
</clipPath>
</defs>
</svg>
