<svg width="50" height="50" viewBox="0 0 50 50" fill="none" xmlns="http://www.w3.org/2000/svg">
<path d="M50 9.49314C48.1602 10.309 46.1832 10.8603 44.1082 11.1084C46.2264 9.83884 47.8527 7.82849 48.6186 5.43318C46.605 6.62807 44.402 7.46995 42.1047 7.92244C40.2334 5.92888 37.5676 4.68298 34.617 4.68298C28.9518 4.68298 24.3586 9.27595 24.3586 14.9408C24.3586 15.7449 24.4494 16.5277 24.6242 17.2787C16.0988 16.8508 8.54023 12.767 3.48066 6.56072C2.59785 8.07576 2.09199 9.83806 2.09199 11.7177C2.09199 15.2767 3.90313 18.4164 6.65547 20.256C5.02646 20.205 3.4333 19.765 2.00898 18.9728C2.0084 19.0158 2.0084 19.0588 2.0084 19.1019C2.0084 24.072 5.54434 28.2181 10.2369 29.1605C8.72634 29.5713 7.14185 29.6315 5.60449 29.3363C6.90977 33.4117 10.6982 36.3773 15.1869 36.4603C11.6762 39.2115 7.25293 40.8515 2.44707 40.8515C1.61895 40.8515 0.802539 40.8029 0 40.7082C4.53965 43.6187 9.93164 45.317 15.7246 45.317C34.5932 45.317 44.9109 29.6859 44.9109 16.1304C44.9109 15.6855 44.9012 15.2431 44.8813 14.8033C46.8895 13.3515 48.6229 11.5533 50 9.49314" fill="#55ACEE"/>
</svg>
