<svg width="24" height="24" viewBox="0 0 24 24" fill="none" xmlns="http://www.w3.org/2000/svg">
<path fill-rule="evenodd" clip-rule="evenodd" d="M21.0858 8.41416C21.8668 7.63311 21.8668 6.36678 21.0858 5.58573L18.4142 2.91416C17.6332 2.13311 16.3668 2.13311 15.5858 2.91416L3.58579 14.9142C3.21071 15.2892 3 15.7979 3 16.3284V19.9999C3 20.5522 3.44772 20.9999 4 20.9999H7.67157C8.20201 20.9999 8.71071 20.7892 9.08579 20.4142L21.0858 8.41416ZM13.8184 7.50999L16.4899 10.1816L7.67157 18.9999H5L5 16.3284L13.8184 7.50999ZM17.9042 8.76735L15.2326 6.09578L17 4.32837L19.6716 6.99994L17.9042 8.76735Z" fill="currentColor"/>
</svg>
