<svg width="24" height="24" viewBox="0 0 24 24" fill="none" xmlns="http://www.w3.org/2000/svg">
<path d="M8.41707 10L12.0029 13.5858L15.5887 10C15.9792 9.60952 16.6123 9.60952 17.0029 10C17.0517 10.0489 17.0944 10.1015 17.131 10.1569C17.3873 10.5451 17.3446 11.0726 17.0029 11.4143L12.71 15.7072C12.5224 15.8947 12.2681 16 12.0029 16C11.7376 16 11.4833 15.8947 11.2958 15.7072L7.00285 11.4143C6.61233 11.0237 6.61233 10.3906 7.00285 10C7.05167 9.95123 7.10428 9.90852 7.15973 9.87191C7.54788 9.61563 8.07536 9.65834 8.41707 10Z" fill="currentColor"/>
</svg>
